<svg width="29" height="32" viewBox="0 0 29 32" fill="none" xmlns="http://www.w3.org/2000/svg">
<path id="Icon" fill-rule="evenodd" clip-rule="evenodd" d="M15.6 1.06775e-06H13.1861C12.4275 -2.22501e-05 11.7728 -4.23641e-05 11.2337 0.044004C10.6647 0.0904953 10.0988 0.193142 9.55416 0.470633C8.74169 0.884609 8.08113 1.54517 7.66716 2.35765C7.38967 2.90225 7.28702 3.46822 7.24053 4.03725C7.20104 4.52054 7.19697 5.09657 7.19657 5.75727H1.43931C0.644399 5.75727 0 6.40167 0 7.19659C0 7.9915 0.644399 8.6359 1.43931 8.6359H2.96857L3.92225 23.8948C3.99046 24.9866 4.04691 25.89 4.15187 26.6253C4.26113 27.3908 4.43665 28.0906 4.80584 28.743C5.38043 29.7585 6.24999 30.5754 7.29929 31.0855C7.9735 31.4133 8.68284 31.5448 9.45364 31.6061C10.1941 31.665 11.0992 31.665 12.1932 31.665H16.5986C17.6925 31.665 18.5977 31.665 19.3381 31.6061C20.1089 31.5448 20.8182 31.4133 21.4925 31.0855C22.5418 30.5754 23.4113 29.7585 23.9859 28.743C24.3551 28.0906 24.5306 27.3908 24.6399 26.6253C24.7448 25.89 24.8013 24.9868 24.8695 23.8951L25.8232 8.6359H27.3468C28.1417 8.6359 28.7861 7.9915 28.7861 7.19659C28.7861 6.40167 28.1417 5.75727 27.3468 5.75727H21.5896C21.5892 5.09657 21.5851 4.52054 21.5456 4.03725C21.4991 3.46822 21.3965 2.90225 21.119 2.35765C20.705 1.54517 20.0444 0.884609 19.232 0.470633C18.6874 0.193142 18.1214 0.0904953 17.5524 0.0440039C17.0133 -4.23668e-05 16.3587 -2.22501e-05 15.6 1.06775e-06ZM18.7109 5.75727H10.0752C10.0759 5.08784 10.0803 4.63026 10.1096 4.27166C10.1415 3.88065 10.1958 3.73568 10.232 3.66452C10.37 3.39369 10.5902 3.17351 10.861 3.03551C10.9322 2.99925 11.0772 2.94502 11.4682 2.91308C11.876 2.87976 12.4118 2.87864 13.2416 2.87864H15.5445C16.3743 2.87864 16.9102 2.87976 17.318 2.91308C17.709 2.94502 17.8539 2.99925 17.9251 3.03551C18.1959 3.17351 18.4161 3.39369 18.5541 3.66452C18.5904 3.73568 18.6446 3.88065 18.6765 4.27166C18.7058 4.63026 18.7102 5.08784 18.7109 5.75727ZM9.49991 12.882C9.46021 12.0881 8.78444 11.4767 7.99052 11.5164C7.19661 11.5561 6.58519 12.2318 6.62489 13.0258L7.20061 24.5403C7.2403 25.3342 7.91608 25.9456 8.71 25.9059C9.50391 25.8662 10.1153 25.1905 10.0756 24.3965L9.49991 12.882ZM22.1658 13.0258C22.2055 12.2318 21.5941 11.5561 20.8002 11.5164C20.0063 11.4767 19.3305 12.0881 19.2908 12.882L18.7151 24.3965C18.6754 25.1905 19.2868 25.8662 20.0807 25.9059C20.8746 25.9456 21.5504 25.3342 21.5901 24.5403L22.1658 13.0258ZM15.8347 12.9539C15.8347 12.159 15.1903 11.5146 14.3953 11.5146C13.6004 11.5146 12.956 12.159 12.956 12.9539V24.4684C12.956 25.2633 13.6004 25.9077 14.3953 25.9077C15.1903 25.9077 15.8347 25.2633 15.8347 24.4684V12.9539Z" fill="#0077DD"/>
</svg>
