<svg width="84" height="83" viewBox="0 0 84 83" fill="none" xmlns="http://www.w3.org/2000/svg">
<g id="Medical" clip-path="url(#clip0_24_10827)">
<path id="Icon" d="M35.885 14.2892V34.8205H15.3537C13.1981 34.8205 11.9795 34.8257 11.0936 34.8981C11.0574 34.901 11.023 34.904 10.9904 34.907L10.4386 34.9579L10.3877 35.5096C10.3847 35.5422 10.3817 35.5767 10.3787 35.613C10.3063 36.4989 10.3012 37.7175 10.3012 39.873V45.7207C10.3012 47.8762 10.3063 49.0949 10.3787 49.9808L11.0432 49.9265L10.3787 49.9808C10.3817 50.017 10.3847 50.0514 10.3877 50.0841L10.4386 50.6358L10.9903 50.6867C11.0031 50.6879 11.0163 50.6891 11.0297 50.6902C11.0503 50.6921 11.0717 50.6939 11.0937 50.6957C11.9795 50.7681 13.1981 50.7732 15.3537 50.7732H35.885V71.3045C35.885 73.46 35.8901 74.6787 35.9625 75.5646C35.9655 75.6007 35.9685 75.6352 35.9715 75.6679L36.0224 76.2194L36.5739 76.2705C36.6068 76.2735 36.6413 76.2765 36.6774 76.2795L36.6774 76.2795C37.5633 76.3519 38.782 76.357 40.9375 76.357H46.7852C48.9407 76.357 50.1593 76.3519 51.0452 76.2795C51.0813 76.2765 51.1158 76.2735 51.1486 76.2705L51.7002 76.2196L51.7511 75.6679C51.7542 75.6353 51.7572 75.6009 51.7601 75.5645C51.8325 74.6787 51.8377 73.46 51.8377 71.3045V50.7732H72.369C74.5245 50.7732 75.7431 50.7681 76.629 50.6957C76.6652 50.6927 76.6996 50.6897 76.7324 50.6867L77.2839 50.6358L77.3349 50.0843C77.338 50.0514 77.341 50.0169 77.3439 49.9809C77.4163 49.0949 77.4215 47.8762 77.4215 45.7207V39.873C77.4215 37.7175 77.4163 36.4989 77.3439 35.613L77.3439 35.6129C77.341 35.5768 77.338 35.5424 77.3349 35.5096L77.284 34.958L76.7324 34.9071C76.6998 34.9041 76.6653 34.901 76.629 34.8981C75.7431 34.8257 74.5245 34.8205 72.369 34.8205H51.8377V14.2892C51.8377 12.1337 51.8325 10.9151 51.7601 10.0292C51.7572 9.99298 51.7542 9.95853 51.7511 9.92583L51.7002 9.37415L51.1486 9.32326C51.116 9.32025 51.0815 9.31724 51.0452 9.31427L50.9909 9.97872L51.0452 9.31427C50.1593 9.24189 48.9407 9.23674 46.7852 9.23674H40.9375C38.782 9.23674 37.5633 9.24189 36.6774 9.31427C36.6411 9.31724 36.6067 9.32025 36.5741 9.32326L36.0224 9.37416L35.9715 9.92591C35.9685 9.95855 35.9655 9.99295 35.9625 10.0292C35.8901 10.9151 35.885 12.1337 35.885 14.2892ZM57.814 28.1776V28.8442H58.4806H72.369C74.4269 28.8442 75.9302 28.8447 77.1157 28.9416C78.2934 29.0378 79.0985 29.2258 79.7707 29.5683C81.0206 30.2052 82.0369 31.2214 82.6737 32.4714C83.0162 33.1435 83.2042 33.9487 83.3004 35.1263C83.3973 36.3118 83.3978 37.8151 83.3978 39.873V45.7207C83.3978 47.7786 83.3973 49.282 83.3004 50.4674C83.2042 51.6451 83.0162 52.4502 82.6737 53.1224C82.0369 54.3723 81.0206 55.3886 79.7707 56.0255C79.0985 56.368 78.2934 56.5559 77.1157 56.6521C75.9302 56.749 74.4269 56.7495 72.369 56.7495H58.4806H57.814V57.4162V71.3045C57.814 73.3624 57.8135 74.8658 57.7166 76.0512C57.6204 77.2289 57.4324 78.034 57.0899 78.7062C56.453 79.9562 55.4368 80.9724 54.1868 81.6093C53.5147 81.9518 52.7095 82.1397 51.5319 82.236C50.3464 82.3328 48.8431 82.3333 46.7852 82.3333H40.9375C38.8796 82.3333 37.3762 82.3328 36.1908 82.236C35.0131 82.1397 34.208 81.9518 33.5358 81.6093C32.2859 80.9724 31.2696 79.9562 30.6327 78.7062C30.2902 78.034 30.1023 77.2289 30.0061 76.0512C29.9092 74.8658 29.9087 73.3624 29.9087 71.3045V57.4162V56.7495H29.242H15.3537C13.2958 56.7495 11.7924 56.749 10.607 56.6521C9.4293 56.5559 8.62417 56.368 7.95201 56.0255C6.70205 55.3886 5.6858 54.3723 5.04891 53.1224L4.45491 53.425L5.04891 53.1224C4.70643 52.4502 4.51846 51.6451 4.42224 50.4674C4.32539 49.282 4.32487 47.7786 4.32487 45.7207V39.873C4.32487 37.8151 4.32539 36.3118 4.42224 35.1263C4.51846 33.9487 4.70643 33.1435 5.04891 32.4714C5.6858 31.2214 6.70205 30.2052 7.95201 29.5683C8.62417 29.2258 9.4293 29.0378 10.607 28.9416C11.7924 28.8447 13.2958 28.8442 15.3537 28.8442H29.242H29.9087V28.1776V14.2892C29.9087 12.2313 29.9092 10.728 30.0061 9.54252C30.1023 8.36485 30.2902 7.55972 30.6327 6.88755C31.2696 5.63759 32.2859 4.62135 33.5358 3.98446C34.208 3.64197 35.0131 3.45401 36.1908 3.35779C37.3762 3.26094 38.8796 3.26042 40.9375 3.26042H46.7852C48.8431 3.26042 50.3464 3.26094 51.5319 3.35779C52.7095 3.45401 53.5147 3.64197 54.1868 3.98446L54.4892 3.39099L54.1868 3.98446C55.4368 4.62135 56.453 5.63759 57.0899 6.88755C57.4324 7.55972 57.6204 8.36485 57.7166 9.54252C57.8135 10.728 57.814 12.2313 57.814 14.2892V28.1776Z" fill="#0077DD" stroke="#2A90E4" stroke-width="1.33333"/>
</g>
<defs>
<clipPath id="clip0_24_10827">
<rect width="83" height="83" fill="white" transform="translate(0.962891)"/>
</clipPath>
</defs>
</svg>
