<svg width="84" height="83" viewBox="0 0 84 83" fill="none" xmlns="http://www.w3.org/2000/svg">
<g id="On-Time" clip-path="url(#clip0_24_10947)">
<g id="Icon">
<path d="M73.3835 41.4997C73.3835 41.8335 73.3782 42.1662 73.3678 42.4975C75.7819 43.2142 78.0384 44.2972 80.0728 45.6822C80.223 44.3087 80.3001 42.9132 80.3001 41.4997C80.3001 20.4898 63.2683 3.45801 42.2585 3.45801C21.2486 3.45801 4.2168 20.4898 4.2168 41.4997C4.2168 62.5095 21.2486 79.5413 42.2585 79.5413C43.672 79.5413 45.0675 79.4643 46.441 79.314C45.056 77.2796 43.973 75.0231 43.2563 72.609C42.925 72.6194 42.5923 72.6247 42.2585 72.6247C25.0686 72.6247 11.1335 58.6895 11.1335 41.4997C11.1335 24.3098 25.0686 10.3747 42.2585 10.3747C59.4483 10.3747 73.3835 24.3098 73.3835 41.4997Z" fill="#2A90E4"/>
<path d="M38.8001 20.7497C38.8001 18.8397 40.3485 17.2913 42.2585 17.2913C44.1685 17.2913 45.7168 18.8397 45.7168 20.7497V40.7834C45.7168 42.1592 45.1703 43.4787 44.1974 44.4515L36.058 52.5909C34.7075 53.9415 32.5178 53.9415 31.1672 52.5909C29.8167 51.2404 29.8167 49.0507 31.1672 47.7001L38.8001 40.0672V20.7497Z" fill="#2A90E4"/>
<path fill-rule="evenodd" clip-rule="evenodd" d="M66.4668 82.9997C76.0167 82.9997 83.7585 75.2579 83.7585 65.708C83.7585 56.1581 76.0167 48.4163 66.4668 48.4163C56.9169 48.4163 49.1751 56.1581 49.1751 65.708C49.1751 75.2579 56.9169 82.9997 66.4668 82.9997ZM73.8908 57.1291C75.3833 57.982 75.9019 59.8833 75.049 61.3758L68.1323 73.4799C67.6045 74.4037 66.6413 74.9939 65.5785 75.0447C64.5158 75.0955 63.5007 74.5999 62.8871 73.7306L57.6996 66.3817C56.7083 64.9773 57.0432 63.0353 58.4475 62.0439C59.8519 61.0526 61.7939 61.3875 62.7852 62.7918L65.1532 66.1465L69.6442 58.2873C70.4971 56.7948 72.3983 56.2763 73.8908 57.1291Z" fill="#2A90E4"/>
</g>
</g>
<defs>
<clipPath id="clip0_24_10947">
<rect width="83" height="83" fill="white" transform="translate(0.757812)"/>
</clipPath>
</defs>
</svg>
