<svg width="83" height="83" viewBox="0 0 83 83" fill="none" xmlns="http://www.w3.org/2000/svg">
<g id=" Pause">
<g id="Icon">
<path d="M17.8175 11.1868C17.291 12.4578 17.291 14.0692 17.291 17.292V65.7087C17.291 68.9314 17.291 70.5428 17.8175 71.8139C18.5195 73.5087 19.866 74.8552 21.5608 75.5572C22.8319 76.0837 24.4433 76.0837 27.666 76.0837C30.8888 76.0837 32.5002 76.0837 33.7712 75.5572C35.466 74.8552 36.8125 73.5087 37.5145 71.8139C38.041 70.5428 38.041 68.9314 38.041 65.7087V17.292C38.041 14.0692 38.041 12.4578 37.5145 11.1868C36.8125 9.49199 35.466 8.14549 33.7712 7.44349C32.5002 6.91699 30.8888 6.91699 27.666 6.91699C24.4433 6.91699 22.8319 6.91699 21.5608 7.44349C19.866 8.14549 18.5195 9.49199 17.8175 11.1868Z" fill="#2A90E4"/>
<path d="M45.4842 11.1868C44.9577 12.4578 44.9577 14.0692 44.9577 17.292V65.7087C44.9577 68.9314 44.9577 70.5428 45.4842 71.8139C46.1862 73.5087 47.5327 74.8552 49.2275 75.5572C50.4985 76.0837 52.1099 76.0837 55.3327 76.0837C58.5555 76.0837 60.1668 76.0837 61.4379 75.5572C63.1327 74.8552 64.4792 73.5087 65.1812 71.8139C65.7077 70.5428 65.7077 68.9314 65.7077 65.7087V17.292C65.7077 14.0692 65.7077 12.4578 65.1812 11.1868C64.4792 9.49199 63.1327 8.14549 61.4379 7.44349C60.1668 6.91699 58.5555 6.91699 55.3327 6.91699C52.1099 6.91699 50.4985 6.91699 49.2275 7.44349C47.5327 8.14549 46.1862 9.49199 45.4842 11.1868Z" fill="#2A90E4"/>
</g>
</g>
</svg>
