<svg width="83" height="83" viewBox="0 0 83 83" fill="none" xmlns="http://www.w3.org/2000/svg">
<g id="Verified" clip-path="url(#clip0_24_11001)">
<g id="Icon">
<path d="M59.9657 29.4997C60.978 27.88 60.4856 25.7464 58.8659 24.7341C57.2463 23.7218 55.1126 24.2142 54.1003 25.8338L37.4567 52.4637L28.8164 40.2233C27.7149 38.6629 25.557 38.2909 23.9966 39.3923C22.4363 40.4938 22.0642 42.6516 23.1657 44.212L34.8064 60.7031C35.4742 61.6491 36.5712 62.1982 37.7287 62.1657C38.8862 62.1333 39.9507 61.5236 40.5644 60.5417L59.9657 29.4997Z" fill="#2A90E4"/>
<path fill-rule="evenodd" clip-rule="evenodd" d="M44.2339 1.21945C42.6449 -0.073151 40.3669 -0.0731514 38.7779 1.21945L32.1561 6.60618L23.7281 5.25204C21.7057 4.9271 19.7329 6.06611 19.0031 7.98002L15.9618 15.956L7.98588 18.9973C6.07197 19.727 4.93296 21.6999 5.2579 23.7223L6.61204 32.1503L1.22531 38.7721C-0.0672916 40.3611 -0.067292 42.6391 1.22531 44.228L6.61203 50.8498L5.2579 59.2779C4.93296 61.3003 6.07196 63.2731 7.98588 64.0029L15.9618 67.0442L19.0031 75.0201C19.7329 76.934 21.7057 78.073 23.7281 77.7481L32.1561 76.3939L38.7779 81.7807C40.3669 83.0733 42.6449 83.0733 44.2339 81.7807L50.8557 76.3939L59.2837 77.7481C61.3061 78.073 63.2789 76.934 64.0087 75.0201L67.05 67.0442L75.0259 64.0029C76.9399 63.2731 78.0789 61.3003 77.7539 59.2779L76.3998 50.8498L81.7865 44.228C83.0791 42.6391 83.0791 40.3611 81.7865 38.7721L76.3998 32.1503L77.7539 23.7223C78.0789 21.6999 76.9399 19.727 75.026 18.9973L67.05 15.956L64.0087 7.98002C63.2789 6.06611 61.3061 4.9271 59.2837 5.25204L50.8557 6.60618L44.2339 1.21945ZM35.6197 12.7048L41.5059 7.91649L47.3922 12.7048C48.3478 13.4822 49.5896 13.815 50.8059 13.6196L58.2977 12.4158L61.0012 19.5058C61.44 20.6568 62.3492 21.5659 63.5002 22.0048L70.5901 24.7083L69.3864 32.2001C69.191 33.4163 69.5238 34.6582 70.3011 35.6138L75.0895 41.5001L70.3011 47.3863C69.5238 48.3419 69.191 49.5838 69.3864 50.8L70.5901 58.2918L63.5002 60.9953C62.3492 61.4342 61.44 62.3433 61.0012 63.4943L58.2977 70.5843L50.8059 69.3806C49.5896 69.1851 48.3478 69.5179 47.3922 70.2953L41.5059 75.0836L35.6197 70.2953C34.6641 69.5179 33.4222 69.1851 32.2059 69.3806L24.7141 70.5843L22.0107 63.4943C21.5718 62.3433 20.6627 61.4342 19.5116 60.9953L12.4217 58.2918L13.6254 50.8C13.8208 49.5838 13.4881 48.3419 12.7107 47.3863L7.92235 41.5001L12.7107 35.6138C13.4881 34.6582 13.8208 33.4163 13.6254 32.2001L12.4217 24.7083L19.5116 22.0048C20.6627 21.5659 21.5718 20.6568 22.0107 19.5058L24.7141 12.4158L32.2059 13.6196C33.4222 13.815 34.6641 13.4822 35.6197 12.7048Z" fill="#2A90E4"/>
</g>
</g>
<defs>
<clipPath id="clip0_24_11001">
<rect width="83" height="83" fill="white"/>
</clipPath>
</defs>
</svg>
